<svg xmlns="http://www.w3.org/2000/svg" viewBox="0 0 32 32">
  <rect x="1" y="1" width="30" height="30" rx="9" fill="#4F46E5"/>
  <path d="M8 12v-1.5A2.5 2.5 0 0 1 10.5 8H12M20 8h1.5A2.5 2.5 0 0 1 24 10.5V12M24 20v1.5a2.5 2.5 0 0 1-2.5 2.5H20M12 24h-1.5A2.5 2.5 0 0 1 8 21.5V20" stroke="#fff" stroke-width="2" stroke-linecap="round" fill="none"/>
  <circle cx="12.5" cy="14" r="1.25" fill="#fff"/>
  <circle cx="19.5" cy="14" r="1.25" fill="#fff"/>
  <path d="M12 18.5c1 1.2 2.4 1.9 4 1.9s3-.7 4-1.9" stroke="#fff" stroke-width="2" stroke-linecap="round" fill="none"/>
</svg>
